<svg xmlns="http://www.w3.org/2000/svg" width="1024" height="1024" viewBox="0 0 1024 1024" version="1.1"><path d="M 462.500 125.662 C 432.487 129.282, 405.537 139.239, 383.517 154.843 C 371.739 163.189, 356.571 178.764, 348.730 190.563 C 336.798 208.518, 330.987 224.042, 328.349 245.009 C 326.857 256.861, 326.865 258.795, 328.450 272.135 C 329.390 280.036, 330.409 290.663, 330.715 295.752 C 331.255 304.713, 331.170 305.213, 327.993 311.667 C 325.586 316.555, 321.708 321.456, 313.434 330.069 C 299.787 344.273, 297.130 348.108, 296.345 354.731 C 295.476 362.069, 298.224 366.444, 307.170 371.965 C 316.689 377.838, 317.302 379.464, 312.582 386.316 C 307.010 394.406, 307.450 399.952, 314.050 404.805 L 317.995 407.707 315.016 412.103 C 310.566 418.669, 310.912 422.347, 316.462 427.516 C 322.512 433.149, 323.279 435.511, 321.401 442.703 C 318.031 455.608, 319.750 463.831, 327.230 470.589 C 336.538 478.998, 348.083 481.332, 376 480.448 L 395.500 479.831 402.785 483.393 C 414.944 489.339, 424.058 500.349, 433.646 520.675 C 440.658 535.542, 446.279 552.016, 449.529 567.225 C 453.131 584.083, 453.319 584.474, 455.437 579.500 C 458.957 571.232, 460.293 563.595, 460.336 551.500 C 460.428 525.241, 450.538 498.574, 432.467 476.360 L 429.913 473.220 441.695 467.555 C 448.174 464.439, 457.970 458.898, 463.463 455.241 C 472.774 449.042, 487.817 435.386, 492.920 428.500 L 495.144 425.500 494.496 429 C 494.139 430.925, 493.223 435.875, 492.459 440 C 490.781 449.058, 490.605 465.486, 492.080 475.308 C 495.727 499.595, 503.528 516.075, 519.176 532.549 C 535.925 550.181, 557.065 560.463, 583.877 564.019 C 591.923 565.086, 610.017 564.464, 609.985 563.121 C 609.977 562.779, 607.165 561.445, 603.735 560.155 C 595.547 557.077, 581.015 548.945, 573.500 543.238 C 554.327 528.676, 541.760 511.461, 534.598 489.945 C 528.862 472.714, 527.906 465.033, 527.007 429 C 526.124 393.552, 525.158 385.557, 519.834 369.658 C 512.127 346.644, 500.382 329.139, 468.063 292.500 C 434.032 253.921, 423.401 234.754, 422.302 210 C 421.505 192.028, 425.873 178.437, 436.123 167 L 440.156 162.500 439.328 168 C 438.873 171.025, 438.547 179.575, 438.605 187 C 438.694 198.520, 439.101 201.820, 441.380 209.500 C 447.579 230.393, 459.010 248.926, 488.535 285.956 C 498.822 298.856, 510.544 314.079, 514.586 319.784 C 522.714 331.258, 532.584 350.371, 536.461 362.143 C 540.279 373.737, 544.684 397.792, 545.957 414 C 549.369 457.446, 557.428 484.657, 574.111 509.065 C 598.189 544.292, 633.657 563.584, 671.034 561.784 C 676.570 561.518, 681.542 560.858, 682.081 560.319 C 682.723 559.677, 680.195 558.397, 674.781 556.621 C 663.055 552.775, 647.355 544.399, 638.500 537.264 C 632.811 532.680, 619.146 518.874, 615.073 513.595 C 598.830 492.540, 590.038 467.975, 583.959 426.661 C 576.216 374.035, 569.564 349.088, 556.435 323.445 C 545.836 302.742, 538.212 291.648, 511.459 258 C 481.859 220.771, 475.663 212.310, 468.069 198.745 C 464.799 192.903, 460.840 182.827, 461.540 182.126 C 462.098 181.568, 471.279 187.605, 479.436 193.892 C 502.020 211.300, 521.273 233.430, 540.433 264 C 548.739 277.252, 562.799 304.873, 571.485 325 C 583.641 353.167, 591.610 366.832, 611.308 393.286 C 634.441 424.353, 646.113 447.457, 651.593 473.027 C 655.191 489.814, 653.701 513.520, 648.034 529.644 C 646.929 532.787, 646.230 535.564, 646.481 535.814 C 649.014 538.347, 666.155 522.518, 672.276 511.993 C 679.386 499.766, 683.786 480.417, 682.482 467.119 C 680.179 443.656, 671.304 423.814, 648.111 390.282 C 625.643 357.796, 616.014 339.622, 595.508 291 C 578.529 250.738, 554.300 212.737, 531.541 190.674 C 513.250 172.942, 490.909 160.300, 474.448 158.365 C 471.451 158.013, 469 157.337, 469 156.862 C 469 154.280, 497.493 157.187, 510.500 161.097 C 520.825 164.200, 536.658 171.969, 546.681 178.850 C 580.689 202.197, 603.994 238.466, 623.158 297.869 C 639.416 348.261, 644.469 358.665, 660.794 375.356 C 670.909 385.699, 679.186 390.825, 692.291 394.866 C 705.274 398.869, 724.152 398.554, 732.500 394.194 L 735.500 392.627 731.500 391.784 C 700.623 385.272, 684.298 368.439, 669.156 327.500 C 666.918 321.450, 661.881 306.150, 657.962 293.500 C 654.043 280.850, 648.572 264.425, 645.805 257 C 631.228 217.887, 608.979 185.061, 582 162.860 C 558.540 143.556, 528.250 130.023, 499.678 126.079 C 492.443 125.081, 469.454 124.823, 462.500 125.662 M 391.255 192.476 C 381.281 200.492, 375.777 206.659, 367.137 219.500 C 355.269 237.136, 350.205 252.423, 345.604 284.500 C 342.895 303.384, 339.750 314.602, 335.160 321.744 C 333.479 324.360, 327.126 331.414, 321.041 337.420 C 305.480 352.781, 304.353 357.467, 314.536 364.481 C 325.917 372.319, 328.779 379.378, 323.673 387.018 C 319.640 393.051, 319.691 393.556, 324.798 398.086 C 327.384 400.381, 331.863 403.839, 334.750 405.771 C 337.637 407.703, 340 409.635, 340 410.064 C 340 410.834, 336.153 412.232, 330.715 413.438 C 328.946 413.830, 327.564 415.018, 326.927 416.692 C 326.056 418.982, 326.333 419.749, 329.040 422.542 C 333.477 427.119, 334.029 430.901, 331.814 441.522 C 329.651 451.893, 330.106 456.784, 333.622 460.963 C 337.960 466.118, 343.634 467.509, 360 467.429 C 376.383 467.348, 384.563 466.240, 403.962 461.471 C 428.573 455.421, 445.336 447.172, 458.846 434.463 C 467.775 426.064, 473.759 417.387, 477.210 407.839 C 479.179 402.387, 479.488 399.681, 479.411 388.500 C 479.335 377.482, 478.920 374.177, 476.687 366.824 C 470.858 347.634, 460.378 330.152, 441.425 308 C 408.047 268.990, 399.874 256.556, 394.946 237.289 C 391.176 222.547, 392.775 202.432, 398.646 190.750 C 399.959 188.137, 400.646 186, 400.173 186 C 399.699 186, 395.686 188.914, 391.255 192.476 M 370.500 267.616 C 361.248 269.995, 355 274.424, 355 278.604 C 355 280.852, 358.090 285.008, 359.750 284.993 C 360.163 284.989, 363.758 283.880, 367.740 282.529 C 382.366 277.565, 389.865 278.301, 405.211 286.210 C 409.770 288.560, 413.899 290.656, 414.386 290.870 C 416.578 291.829, 410.068 282.402, 405.747 278.360 C 398.632 271.705, 390.101 268.059, 380.411 267.532 C 376.060 267.295, 371.600 267.333, 370.500 267.616 M 354.943 308.250 C 354.912 308.387, 354.759 311.783, 354.603 315.796 C 354.335 322.703, 354.462 323.192, 356.981 324.986 C 363.146 329.376, 375.807 330.051, 386.002 326.534 C 390.481 324.989, 406 313.711, 406 312.001 C 406 311.480, 404.847 311.495, 403.250 312.035 C 398.427 313.668, 383.364 314.614, 374.523 313.839 C 368.485 313.309, 364.476 312.340, 360.901 310.544 C 355.997 308.081, 355.063 307.721, 354.943 308.250 M 673.500 596.296 C 665.007 600.373, 660.882 610.946, 664.801 618.590 C 667.724 624.292, 670.721 626.585, 677.820 628.552 C 683.838 630.219, 684.110 630.427, 683.502 632.902 C 682.419 637.306, 677.975 644.068, 672.340 649.886 C 666.825 655.580, 666.190 658.007, 670.219 657.990 C 678.153 657.956, 693.464 645.410, 699.076 634.345 C 702.225 628.136, 702.500 626.866, 702.500 618.546 C 702.500 610.752, 702.154 608.883, 700 605.044 C 694.514 595.266, 683.332 591.575, 673.500 596.296 M 228.365 599.683 C 227.934 601.400, 228.109 602.536, 228.843 602.781 C 233.808 604.436, 238.596 608.057, 240.423 611.540 C 242.440 615.386, 242.509 617.079, 242.822 670.500 C 242.998 700.750, 242.843 730.110, 242.476 735.744 C 241.691 747.792, 239.919 751.377, 233.208 754.493 C 228.892 756.497, 226.730 760.130, 228.688 762.088 C 229.248 762.648, 242.173 762.922, 260.565 762.765 L 291.500 762.500 291.500 760.020 C 291.500 758.141, 290.482 756.978, 287.303 755.224 C 284.995 753.951, 282.070 751.242, 280.803 749.205 C 278.594 745.651, 278.487 744.529, 278.183 721.599 L 277.867 697.698 283.175 692.322 C 286.095 689.366, 289.036 687.071, 289.711 687.223 C 291.377 687.599, 335 750.057, 335 752.067 C 335 752.946, 333.313 754.757, 331.250 756.092 C 328.985 757.557, 327.500 759.307, 327.500 760.509 C 327.500 762.457, 328.218 762.500, 361 762.500 L 394.500 762.500 394.500 759.602 C 394.500 757.004, 393.976 756.534, 389.438 755.054 C 381.826 752.573, 376.066 747.781, 368.339 737.500 C 365.601 733.858, 344.459 703.264, 323.229 672.225 L 314.834 659.950 321.818 652.225 C 334.330 638.386, 356.353 617.494, 362.879 613.273 C 366.387 611.004, 372.012 608.169, 375.379 606.973 C 387.630 602.622, 387.129 602.923, 386.803 600.107 L 386.500 597.500 356.322 597.235 C 326.602 596.975, 326.134 597.002, 325.489 599.033 C 324.660 601.646, 326.342 603.696, 329.965 604.492 C 336.346 605.894, 338.037 611.055, 334.586 618.594 C 331.027 626.366, 320.414 639.283, 300.125 660.534 C 295.381 665.503, 288.650 672.591, 285.167 676.284 C 281.684 679.978, 278.646 683, 278.417 683 C 277.432 683, 278.057 615.981, 279.067 613.315 C 280.513 609.497, 283.738 606.196, 288.313 603.850 C 291.233 602.353, 292.052 601.381, 291.813 599.698 L 291.500 597.500 260.273 597.236 L 229.045 596.972 228.365 599.683 M 446.757 639.965 C 422.798 644.346, 404.397 660.119, 396.241 683.267 C 394.042 689.509, 393.680 692.281, 393.597 703.500 C 393.485 718.547, 395.291 725.988, 401.718 736.953 C 419.619 767.495, 462.928 776.717, 496.050 757.040 C 508.926 749.390, 519.609 734.789, 523.485 719.540 C 525.436 711.863, 525.450 695.147, 523.510 687.701 C 517.374 664.142, 501.367 647.766, 478.392 641.540 C 471.379 639.640, 453.424 638.746, 446.757 639.965 M 590.500 640.077 C 566.548 644.828, 549.611 659.163, 541.251 681.758 C 539.283 687.080, 538.654 691.027, 538.267 700.500 C 537.485 719.668, 540.369 730.058, 550.033 742.883 C 561.942 758.688, 580.352 767, 603.450 767 C 616.600 767, 623.209 765.516, 634.946 759.926 C 649.779 752.862, 663.265 736.623, 667.348 720.908 C 670.732 707.884, 670.241 693.326, 666.012 681.293 C 659.402 662.486, 642.341 646.908, 622.500 641.560 C 615.108 639.568, 597.241 638.740, 590.500 640.077 M 736.916 640.522 C 723.183 643.857, 710.323 653.172, 706.190 662.780 C 701.234 674.301, 702.466 686.338, 709.594 696.020 C 715.624 704.211, 722.162 707.901, 744.447 715.690 C 766.342 723.342, 772 728.088, 772 738.802 C 772 746.604, 766.514 753.166, 758.423 755.043 C 748.736 757.289, 737.690 755.196, 729.572 749.576 C 723.707 745.515, 720.572 741.804, 715.965 733.469 C 711.630 725.626, 710.156 724, 707.380 724 C 703.582 724, 702.924 726.887, 703.222 742.236 L 703.500 756.500 710 759.752 C 728.425 768.970, 761.245 769.548, 778.096 760.951 C 784.967 757.446, 792.420 749.685, 795.495 742.832 C 799.184 734.611, 799.503 722.017, 796.208 714.670 C 790.622 702.215, 781.720 696.083, 756 686.973 C 737.843 680.542, 733.039 677.909, 730.499 672.998 C 727.054 666.336, 730.177 656.955, 737.142 653.040 C 742.876 649.817, 752.929 649.152, 760.066 651.522 C 768.855 654.441, 778.250 664.428, 781.074 673.853 C 782.600 678.947, 784.035 680.241, 787.690 679.822 L 790.500 679.500 790.776 664.904 L 791.052 650.308 787.276 647.710 C 782.192 644.212, 779.896 643.438, 767.510 641.048 C 755.462 638.723, 745.064 638.544, 736.916 640.522 M 448.147 652.156 C 435.977 658.180, 430.175 676.997, 431.295 706.812 C 431.928 723.679, 433.301 730.701, 437.882 740.500 C 442.968 751.378, 449.707 756.016, 460.372 755.978 C 470.509 755.942, 477.898 751.092, 482.858 741.222 C 487.325 732.333, 489.436 714.924, 488.076 698.200 C 486.087 673.754, 479.053 657.639, 467.885 651.941 C 462.605 649.248, 453.829 649.344, 448.147 652.156 M 592.500 651.659 C 583.401 656.447, 577.762 667.130, 575.275 684.294 C 573.896 693.810, 573.822 697.578, 574.785 709.282 C 576.697 732.523, 581.639 745.798, 590.827 752.373 C 594.536 755.027, 596.209 755.522, 602.539 755.842 C 608.644 756.150, 610.726 755.827, 614.547 753.977 C 619.853 751.409, 625.002 745.041, 627.884 737.485 C 632.802 724.587, 633.155 696.737, 628.627 678.895 C 624.869 664.090, 619.845 656.002, 611.885 651.941 C 607.130 649.515, 596.857 649.366, 592.500 651.659" stroke="none" fill="#000000" fill-rule="evenodd"/><path d="M 462.500 125.662 C 432.487 129.282, 405.537 139.239, 383.517 154.843 C 371.739 163.189, 356.571 178.764, 348.730 190.563 C 336.798 208.518, 330.987 224.042, 328.349 245.009 C 326.857 256.861, 326.865 258.795, 328.450 272.135 C 329.390 280.036, 330.409 290.663, 330.715 295.752 C 331.255 304.713, 331.170 305.213, 327.993 311.667 C 325.586 316.555, 321.708 321.456, 313.434 330.069 C 299.787 344.273, 297.130 348.108, 296.345 354.731 C 295.476 362.069, 298.224 366.444, 307.170 371.965 C 316.689 377.838, 317.302 379.464, 312.582 386.316 C 307.010 394.406, 307.450 399.952, 314.050 404.805 L 317.995 407.707 315.016 412.103 C 310.566 418.669, 310.912 422.347, 316.462 427.516 C 322.512 433.149, 323.279 435.511, 321.401 442.703 C 318.031 455.608, 319.750 463.831, 327.230 470.589 C 336.538 478.998, 348.083 481.332, 376 480.448 L 395.500 479.831 402.785 483.393 C 414.944 489.339, 424.058 500.349, 433.646 520.675 C 440.658 535.542, 446.279 552.016, 449.529 567.225 C 453.131 584.083, 453.319 584.474, 455.437 579.500 C 458.957 571.232, 460.293 563.595, 460.336 551.500 C 460.428 525.241, 450.538 498.574, 432.467 476.360 L 429.913 473.220 441.695 467.555 C 448.174 464.439, 457.970 458.898, 463.463 455.241 C 472.774 449.042, 487.817 435.386, 492.920 428.500 L 495.144 425.500 494.496 429 C 494.139 430.925, 493.223 435.875, 492.459 440 C 490.781 449.058, 490.605 465.486, 492.080 475.308 C 495.727 499.595, 503.528 516.075, 519.176 532.549 C 535.925 550.181, 557.065 560.463, 583.877 564.019 C 591.923 565.086, 610.017 564.464, 609.985 563.121 C 609.977 562.779, 607.165 561.445, 603.735 560.155 C 595.547 557.077, 581.015 548.945, 573.500 543.238 C 554.327 528.676, 541.760 511.461, 534.598 489.945 C 528.862 472.714, 527.906 465.033, 527.007 429 C 526.124 393.552, 525.158 385.557, 519.834 369.658 C 512.127 346.644, 500.382 329.139, 468.063 292.500 C 434.032 253.921, 423.401 234.754, 422.302 210 C 421.505 192.028, 425.873 178.437, 436.123 167 L 440.156 162.500 439.328 168 C 438.873 171.025, 438.547 179.575, 438.605 187 C 438.694 198.520, 439.101 201.820, 441.380 209.500 C 447.579 230.393, 459.010 248.926, 488.535 285.956 C 498.822 298.856, 510.544 314.079, 514.586 319.784 C 522.714 331.258, 532.584 350.371, 536.461 362.143 C 540.279 373.737, 544.684 397.792, 545.957 414 C 549.369 457.446, 557.428 484.657, 574.111 509.065 C 598.189 544.292, 633.657 563.584, 671.034 561.784 C 676.570 561.518, 681.542 560.858, 682.081 560.319 C 682.723 559.677, 680.195 558.397, 674.781 556.621 C 663.055 552.775, 647.355 544.399, 638.500 537.264 C 632.811 532.680, 619.146 518.874, 615.073 513.595 C 598.830 492.540, 590.038 467.975, 583.959 426.661 C 576.216 374.035, 569.564 349.088, 556.435 323.445 C 545.836 302.742, 538.212 291.648, 511.459 258 C 481.859 220.771, 475.663 212.310, 468.069 198.745 C 464.799 192.903, 460.840 182.827, 461.540 182.126 C 462.098 181.568, 471.279 187.605, 479.436 193.892 C 502.020 211.300, 521.273 233.430, 540.433 264 C 548.739 277.252, 562.799 304.873, 571.485 325 C 583.641 353.167, 591.610 366.832, 611.308 393.286 C 634.441 424.353, 646.113 447.457, 651.593 473.027 C 655.191 489.814, 653.701 513.520, 648.034 529.644 C 646.929 532.787, 646.230 535.564, 646.481 535.814 C 649.014 538.347, 666.155 522.518, 672.276 511.993 C 679.386 499.766, 683.786 480.417, 682.482 467.119 C 680.179 443.656, 671.304 423.814, 648.111 390.282 C 625.643 357.796, 616.014 339.622, 595.508 291 C 578.529 250.738, 554.300 212.737, 531.541 190.674 C 513.250 172.942, 490.909 160.300, 474.448 158.365 C 471.451 158.013, 469 157.337, 469 156.862 C 469 154.280, 497.493 157.187, 510.500 161.097 C 520.825 164.200, 536.658 171.969, 546.681 178.850 C 580.689 202.197, 603.994 238.466, 623.158 297.869 C 639.416 348.261, 644.469 358.665, 660.794 375.356 C 670.909 385.699, 679.186 390.825, 692.291 394.866 C 705.274 398.869, 724.152 398.554, 732.500 394.194 L 735.500 392.627 731.500 391.784 C 700.623 385.272, 684.298 368.439, 669.156 327.500 C 666.918 321.450, 661.881 306.150, 657.962 293.500 C 654.043 280.850, 648.572 264.425, 645.805 257 C 631.228 217.887, 608.979 185.061, 582 162.860 C 558.540 143.556, 528.250 130.023, 499.678 126.079 C 492.443 125.081, 469.454 124.823, 462.500 125.662 M 391.255 192.476 C 381.281 200.492, 375.777 206.659, 367.137 219.500 C 355.269 237.136, 350.205 252.423, 345.604 284.500 C 342.895 303.384, 339.750 314.602, 335.160 321.744 C 333.479 324.360, 327.126 331.414, 321.041 337.420 C 305.480 352.781, 304.353 357.467, 314.536 364.481 C 325.917 372.319, 328.779 379.378, 323.673 387.018 C 319.640 393.051, 319.691 393.556, 324.798 398.086 C 327.384 400.381, 331.863 403.839, 334.750 405.771 C 337.637 407.703, 340 409.635, 340 410.064 C 340 410.834, 336.153 412.232, 330.715 413.438 C 328.946 413.830, 327.564 415.018, 326.927 416.692 C 326.056 418.982, 326.333 419.749, 329.040 422.542 C 333.477 427.119, 334.029 430.901, 331.814 441.522 C 329.651 451.893, 330.106 456.784, 333.622 460.963 C 337.960 466.118, 343.634 467.509, 360 467.429 C 376.383 467.348, 384.563 466.240, 403.962 461.471 C 428.573 455.421, 445.336 447.172, 458.846 434.463 C 467.775 426.064, 473.759 417.387, 477.210 407.839 C 479.179 402.387, 479.488 399.681, 479.411 388.500 C 479.335 377.482, 478.920 374.177, 476.687 366.824 C 470.858 347.634, 460.378 330.152, 441.425 308 C 408.047 268.990, 399.874 256.556, 394.946 237.289 C 391.176 222.547, 392.775 202.432, 398.646 190.750 C 399.959 188.137, 400.646 186, 400.173 186 C 399.699 186, 395.686 188.914, 391.255 192.476 M 370.500 267.616 C 361.248 269.995, 355 274.424, 355 278.604 C 355 280.852, 358.090 285.008, 359.750 284.993 C 360.163 284.989, 363.758 283.880, 367.740 282.529 C 382.366 277.565, 389.865 278.301, 405.211 286.210 C 409.770 288.560, 413.899 290.656, 414.386 290.870 C 416.578 291.829, 410.068 282.402, 405.747 278.360 C 398.632 271.705, 390.101 268.059, 380.411 267.532 C 376.060 267.295, 371.600 267.333, 370.500 267.616 M 354.943 308.250 C 354.912 308.387, 354.759 311.783, 354.603 315.796 C 354.335 322.703, 354.462 323.192, 356.981 324.986 C 363.146 329.376, 375.807 330.051, 386.002 326.534 C 390.481 324.989, 406 313.711, 406 312.001 C 406 311.480, 404.847 311.495, 403.250 312.035 C 398.427 313.668, 383.364 314.614, 374.523 313.839 C 368.485 313.309, 364.476 312.340, 360.901 310.544 C 355.997 308.081, 355.063 307.721, 354.943 308.250 M 673.500 596.296 C 665.007 600.373, 660.882 610.946, 664.801 618.590 C 667.724 624.292, 670.721 626.585, 677.820 628.552 C 683.838 630.219, 684.110 630.427, 683.502 632.902 C 682.419 637.306, 677.975 644.068, 672.340 649.886 C 666.825 655.580, 666.190 658.007, 670.219 657.990 C 678.153 657.956, 693.464 645.410, 699.076 634.345 C 702.225 628.136, 702.500 626.866, 702.500 618.546 C 702.500 610.752, 702.154 608.883, 700 605.044 C 694.514 595.266, 683.332 591.575, 673.500 596.296 M 228.365 599.683 C 227.934 601.400, 228.109 602.536, 228.843 602.781 C 233.808 604.436, 238.596 608.057, 240.423 611.540 C 242.440 615.386, 242.509 617.079, 242.822 670.500 C 242.998 700.750, 242.843 730.110, 242.476 735.744 C 241.691 747.792, 239.919 751.377, 233.208 754.493 C 228.892 756.497, 226.730 760.130, 228.688 762.088 C 229.248 762.648, 242.173 762.922, 260.565 762.765 L 291.500 762.500 291.500 760.020 C 291.500 758.141, 290.482 756.978, 287.303 755.224 C 284.995 753.951, 282.070 751.242, 280.803 749.205 C 278.594 745.651, 278.487 744.529, 278.183 721.599 L 277.867 697.698 283.175 692.322 C 286.095 689.366, 289.036 687.071, 289.711 687.223 C 291.377 687.599, 335 750.057, 335 752.067 C 335 752.946, 333.313 754.757, 331.250 756.092 C 328.985 757.557, 327.500 759.307, 327.500 760.509 C 327.500 762.457, 328.218 762.500, 361 762.500 L 394.500 762.500 394.500 759.602 C 394.500 757.004, 393.976 756.534, 389.438 755.054 C 381.826 752.573, 376.066 747.781, 368.339 737.500 C 365.601 733.858, 344.459 703.264, 323.229 672.225 L 314.834 659.950 321.818 652.225 C 334.330 638.386, 356.353 617.494, 362.879 613.273 C 366.387 611.004, 372.012 608.169, 375.379 606.973 C 387.630 602.622, 387.129 602.923, 386.803 600.107 L 386.500 597.500 356.322 597.235 C 326.602 596.975, 326.134 597.002, 325.489 599.033 C 324.660 601.646, 326.342 603.696, 329.965 604.492 C 336.346 605.894, 338.037 611.055, 334.586 618.594 C 331.027 626.366, 320.414 639.283, 300.125 660.534 C 295.381 665.503, 288.650 672.591, 285.167 676.284 C 281.684 679.978, 278.646 683, 278.417 683 C 277.432 683, 278.057 615.981, 279.067 613.315 C 280.513 609.497, 283.738 606.196, 288.313 603.850 C 291.233 602.353, 292.052 601.381, 291.813 599.698 L 291.500 597.500 260.273 597.236 L 229.045 596.972 228.365 599.683 M 446.757 639.965 C 422.798 644.346, 404.397 660.119, 396.241 683.267 C 394.042 689.509, 393.680 692.281, 393.597 703.500 C 393.485 718.547, 395.291 725.988, 401.718 736.953 C 419.619 767.495, 462.928 776.717, 496.050 757.040 C 508.926 749.390, 519.609 734.789, 523.485 719.540 C 525.436 711.863, 525.450 695.147, 523.510 687.701 C 517.374 664.142, 501.367 647.766, 478.392 641.540 C 471.379 639.640, 453.424 638.746, 446.757 639.965 M 590.500 640.077 C 566.548 644.828, 549.611 659.163, 541.251 681.758 C 539.283 687.080, 538.654 691.027, 538.267 700.500 C 537.485 719.668, 540.369 730.058, 550.033 742.883 C 561.942 758.688, 580.352 767, 603.450 767 C 616.600 767, 623.209 765.516, 634.946 759.926 C 649.779 752.862, 663.265 736.623, 667.348 720.908 C 670.732 707.884, 670.241 693.326, 666.012 681.293 C 659.402 662.486, 642.341 646.908, 622.500 641.560 C 615.108 639.568, 597.241 638.740, 590.500 640.077 M 736.916 640.522 C 723.183 643.857, 710.323 653.172, 706.190 662.780 C 701.234 674.301, 702.466 686.338, 709.594 696.020 C 715.624 704.211, 722.162 707.901, 744.447 715.690 C 766.342 723.342, 772 728.088, 772 738.802 C 772 746.604, 766.514 753.166, 758.423 755.043 C 748.736 757.289, 737.690 755.196, 729.572 749.576 C 723.707 745.515, 720.572 741.804, 715.965 733.469 C 711.630 725.626, 710.156 724, 707.380 724 C 703.582 724, 702.924 726.887, 703.222 742.236 L 703.500 756.500 710 759.752 C 728.425 768.970, 761.245 769.548, 778.096 760.951 C 784.967 757.446, 792.420 749.685, 795.495 742.832 C 799.184 734.611, 799.503 722.017, 796.208 714.670 C 790.622 702.215, 781.720 696.083, 756 686.973 C 737.843 680.542, 733.039 677.909, 730.499 672.998 C 727.054 666.336, 730.177 656.955, 737.142 653.040 C 742.876 649.817, 752.929 649.152, 760.066 651.522 C 768.855 654.441, 778.250 664.428, 781.074 673.853 C 782.600 678.947, 784.035 680.241, 787.690 679.822 L 790.500 679.500 790.776 664.904 L 791.052 650.308 787.276 647.710 C 782.192 644.212, 779.896 643.438, 767.510 641.048 C 755.462 638.723, 745.064 638.544, 736.916 640.522 M 448.147 652.156 C 435.977 658.180, 430.175 676.997, 431.295 706.812 C 431.928 723.679, 433.301 730.701, 437.882 740.500 C 442.968 751.378, 449.707 756.016, 460.372 755.978 C 470.509 755.942, 477.898 751.092, 482.858 741.222 C 487.325 732.333, 489.436 714.924, 488.076 698.200 C 486.087 673.754, 479.053 657.639, 467.885 651.941 C 462.605 649.248, 453.829 649.344, 448.147 652.156 M 592.500 651.659 C 583.401 656.447, 577.762 667.130, 575.275 684.294 C 573.896 693.810, 573.822 697.578, 574.785 709.282 C 576.697 732.523, 581.639 745.798, 590.827 752.373 C 594.536 755.027, 596.209 755.522, 602.539 755.842 C 608.644 756.150, 610.726 755.827, 614.547 753.977 C 619.853 751.409, 625.002 745.041, 627.884 737.485 C 632.802 724.587, 633.155 696.737, 628.627 678.895 C 624.869 664.090, 619.845 656.002, 611.885 651.941 C 607.130 649.515, 596.857 649.366, 592.500 651.659" stroke="none" fill="#000000" fill-rule="evenodd"/><path d="M 462.500 125.662 C 432.487 129.282, 405.537 139.239, 383.517 154.843 C 371.739 163.189, 356.571 178.764, 348.730 190.563 C 336.798 208.518, 330.987 224.042, 328.349 245.009 C 326.857 256.861, 326.865 258.795, 328.450 272.135 C 329.390 280.036, 330.409 290.663, 330.715 295.752 C 331.255 304.713, 331.170 305.213, 327.993 311.667 C 325.586 316.555, 321.708 321.456, 313.434 330.069 C 299.787 344.273, 297.130 348.108, 296.345 354.731 C 295.476 362.069, 298.224 366.444, 307.170 371.965 C 316.689 377.838, 317.302 379.464, 312.582 386.316 C 307.010 394.406, 307.450 399.952, 314.050 404.805 L 317.995 407.707 315.016 412.103 C 310.566 418.669, 310.912 422.347, 316.462 427.516 C 322.512 433.149, 323.279 435.511, 321.401 442.703 C 318.031 455.608, 319.750 463.831, 327.230 470.589 C 336.538 478.998, 348.083 481.332, 376 480.448 L 395.500 479.831 402.785 483.393 C 414.944 489.339, 424.058 500.349, 433.646 520.675 C 440.658 535.542, 446.279 552.016, 449.529 567.225 C 453.131 584.083, 453.319 584.474, 455.437 579.500 C 458.957 571.232, 460.293 563.595, 460.336 551.500 C 460.428 525.241, 450.538 498.574, 432.467 476.360 L 429.913 473.220 441.695 467.555 C 448.174 464.439, 457.970 458.898, 463.463 455.241 C 472.774 449.042, 487.817 435.386, 492.920 428.500 L 495.144 425.500 494.496 429 C 494.139 430.925, 493.223 435.875, 492.459 440 C 490.781 449.058, 490.605 465.486, 492.080 475.308 C 495.727 499.595, 503.528 516.075, 519.176 532.549 C 535.925 550.181, 557.065 560.463, 583.877 564.019 C 591.923 565.086, 610.017 564.464, 609.985 563.121 C 609.977 562.779, 607.165 561.445, 603.735 560.155 C 595.547 557.077, 581.015 548.945, 573.500 543.238 C 554.327 528.676, 541.760 511.461, 534.598 489.945 C 528.862 472.714, 527.906 465.033, 527.007 429 C 526.124 393.552, 525.158 385.557, 519.834 369.658 C 512.127 346.644, 500.382 329.139, 468.063 292.500 C 434.032 253.921, 423.401 234.754, 422.302 210 C 421.505 192.028, 425.873 178.437, 436.123 167 L 440.156 162.500 439.328 168 C 438.873 171.025, 438.547 179.575, 438.605 187 C 438.694 198.520, 439.101 201.820, 441.380 209.500 C 447.579 230.393, 459.010 248.926, 488.535 285.956 C 498.822 298.856, 510.544 314.079, 514.586 319.784 C 522.714 331.258, 532.584 350.371, 536.461 362.143 C 540.279 373.737, 544.684 397.792, 545.957 414 C 549.369 457.446, 557.428 484.657, 574.111 509.065 C 598.189 544.292, 633.657 563.584, 671.034 561.784 C 676.570 561.518, 681.542 560.858, 682.081 560.319 C 682.723 559.677, 680.195 558.397, 674.781 556.621 C 663.055 552.775, 647.355 544.399, 638.500 537.264 C 632.811 532.680, 619.146 518.874, 615.073 513.595 C 598.830 492.540, 590.038 467.975, 583.959 426.661 C 576.216 374.035, 569.564 349.088, 556.435 323.445 C 545.836 302.742, 538.212 291.648, 511.459 258 C 481.859 220.771, 475.663 212.310, 468.069 198.745 C 464.799 192.903, 460.840 182.827, 461.540 182.126 C 462.098 181.568, 471.279 187.605, 479.436 193.892 C 502.020 211.300, 521.273 233.430, 540.433 264 C 548.739 277.252, 562.799 304.873, 571.485 325 C 583.641 353.167, 591.610 366.832, 611.308 393.286 C 634.441 424.353, 646.113 447.457, 651.593 473.027 C 655.191 489.814, 653.701 513.520, 648.034 529.644 C 646.929 532.787, 646.230 535.564, 646.481 535.814 C 649.014 538.347, 666.155 522.518, 672.276 511.993 C 679.386 499.766, 683.786 480.417, 682.482 467.119 C 680.179 443.656, 671.304 423.814, 648.111 390.282 C 625.643 357.796, 616.014 339.622, 595.508 291 C 578.529 250.738, 554.300 212.737, 531.541 190.674 C 513.250 172.942, 490.909 160.300, 474.448 158.365 C 471.451 158.013, 469 157.337, 469 156.862 C 469 154.280, 497.493 157.187, 510.500 161.097 C 520.825 164.200, 536.658 171.969, 546.681 178.850 C 580.689 202.197, 603.994 238.466, 623.158 297.869 C 639.416 348.261, 644.469 358.665, 660.794 375.356 C 670.909 385.699, 679.186 390.825, 692.291 394.866 C 705.274 398.869, 724.152 398.554, 732.500 394.194 L 735.500 392.627 731.500 391.784 C 700.623 385.272, 684.298 368.439, 669.156 327.500 C 666.918 321.450, 661.881 306.150, 657.962 293.500 C 654.043 280.850, 648.572 264.425, 645.805 257 C 631.228 217.887, 608.979 185.061, 582 162.860 C 558.540 143.556, 528.250 130.023, 499.678 126.079 C 492.443 125.081, 469.454 124.823, 462.500 125.662 M 391.255 192.476 C 381.281 200.492, 375.777 206.659, 367.137 219.500 C 355.269 237.136, 350.205 252.423, 345.604 284.500 C 342.895 303.384, 339.750 314.602, 335.160 321.744 C 333.479 324.360, 327.126 331.414, 321.041 337.420 C 305.480 352.781, 304.353 357.467, 314.536 364.481 C 325.917 372.319, 328.779 379.378, 323.673 387.018 C 319.640 393.051, 319.691 393.556, 324.798 398.086 C 327.384 400.381, 331.863 403.839, 334.750 405.771 C 337.637 407.703, 340 409.635, 340 410.064 C 340 410.834, 336.153 412.232, 330.715 413.438 C 328.946 413.830, 327.564 415.018, 326.927 416.692 C 326.056 418.982, 326.333 419.749, 329.040 422.542 C 333.477 427.119, 334.029 430.901, 331.814 441.522 C 329.651 451.893, 330.106 456.784, 333.622 460.963 C 337.960 466.118, 343.634 467.509, 360 467.429 C 376.383 467.348, 384.563 466.240, 403.962 461.471 C 428.573 455.421, 445.336 447.172, 458.846 434.463 C 467.775 426.064, 473.759 417.387, 477.210 407.839 C 479.179 402.387, 479.488 399.681, 479.411 388.500 C 479.335 377.482, 478.920 374.177, 476.687 366.824 C 470.858 347.634, 460.378 330.152, 441.425 308 C 408.047 268.990, 399.874 256.556, 394.946 237.289 C 391.176 222.547, 392.775 202.432, 398.646 190.750 C 399.959 188.137, 400.646 186, 400.173 186 C 399.699 186, 395.686 188.914, 391.255 192.476 M 370.500 267.616 C 361.248 269.995, 355 274.424, 355 278.604 C 355 280.852, 358.090 285.008, 359.750 284.993 C 360.163 284.989, 363.758 283.880, 367.740 282.529 C 382.366 277.565, 389.865 278.301, 405.211 286.210 C 409.770 288.560, 413.899 290.656, 414.386 290.870 C 416.578 291.829, 410.068 282.402, 405.747 278.360 C 398.632 271.705, 390.101 268.059, 380.411 267.532 C 376.060 267.295, 371.600 267.333, 370.500 267.616 M 354.943 308.250 C 354.912 308.387, 354.759 311.783, 354.603 315.796 C 354.335 322.703, 354.462 323.192, 356.981 324.986 C 363.146 329.376, 375.807 330.051, 386.002 326.534 C 390.481 324.989, 406 313.711, 406 312.001 C 406 311.480, 404.847 311.495, 403.250 312.035 C 398.427 313.668, 383.364 314.614, 374.523 313.839 C 368.485 313.309, 364.476 312.340, 360.901 310.544 C 355.997 308.081, 355.063 307.721, 354.943 308.250 M 673.500 596.296 C 665.007 600.373, 660.882 610.946, 664.801 618.590 C 667.724 624.292, 670.721 626.585, 677.820 628.552 C 683.838 630.219, 684.110 630.427, 683.502 632.902 C 682.419 637.306, 677.975 644.068, 672.340 649.886 C 666.825 655.580, 666.190 658.007, 670.219 657.990 C 678.153 657.956, 693.464 645.410, 699.076 634.345 C 702.225 628.136, 702.500 626.866, 702.500 618.546 C 702.500 610.752, 702.154 608.883, 700 605.044 C 694.514 595.266, 683.332 591.575, 673.500 596.296 M 228.365 599.683 C 227.934 601.400, 228.109 602.536, 228.843 602.781 C 233.808 604.436, 238.596 608.057, 240.423 611.540 C 242.440 615.386, 242.509 617.079, 242.822 670.500 C 242.998 700.750, 242.843 730.110, 242.476 735.744 C 241.691 747.792, 239.919 751.377, 233.208 754.493 C 228.892 756.497, 226.730 760.130, 228.688 762.088 C 229.248 762.648, 242.173 762.922, 260.565 762.765 L 291.500 762.500 291.500 760.020 C 291.500 758.141, 290.482 756.978, 287.303 755.224 C 284.995 753.951, 282.070 751.242, 280.803 749.205 C 278.594 745.651, 278.487 744.529, 278.183 721.599 L 277.867 697.698 283.175 692.322 C 286.095 689.366, 289.036 687.071, 289.711 687.223 C 291.377 687.599, 335 750.057, 335 752.067 C 335 752.946, 333.313 754.757, 331.250 756.092 C 328.985 757.557, 327.500 759.307, 327.500 760.509 C 327.500 762.457, 328.218 762.500, 361 762.500 L 394.500 762.500 394.500 759.602 C 394.500 757.004, 393.976 756.534, 389.438 755.054 C 381.826 752.573, 376.066 747.781, 368.339 737.500 C 365.601 733.858, 344.459 703.264, 323.229 672.225 L 314.834 659.950 321.818 652.225 C 334.330 638.386, 356.353 617.494, 362.879 613.273 C 366.387 611.004, 372.012 608.169, 375.379 606.973 C 387.630 602.622, 387.129 602.923, 386.803 600.107 L 386.500 597.500 356.322 597.235 C 326.602 596.975, 326.134 597.002, 325.489 599.033 C 324.660 601.646, 326.342 603.696, 329.965 604.492 C 336.346 605.894, 338.037 611.055, 334.586 618.594 C 331.027 626.366, 320.414 639.283, 300.125 660.534 C 295.381 665.503, 288.650 672.591, 285.167 676.284 C 281.684 679.978, 278.646 683, 278.417 683 C 277.432 683, 278.057 615.981, 279.067 613.315 C 280.513 609.497, 283.738 606.196, 288.313 603.850 C 291.233 602.353, 292.052 601.381, 291.813 599.698 L 291.500 597.500 260.273 597.236 L 229.045 596.972 228.365 599.683 M 446.757 639.965 C 422.798 644.346, 404.397 660.119, 396.241 683.267 C 394.042 689.509, 393.680 692.281, 393.597 703.500 C 393.485 718.547, 395.291 725.988, 401.718 736.953 C 419.619 767.495, 462.928 776.717, 496.050 757.040 C 508.926 749.390, 519.609 734.789, 523.485 719.540 C 525.436 711.863, 525.450 695.147, 523.510 687.701 C 517.374 664.142, 501.367 647.766, 478.392 641.540 C 471.379 639.640, 453.424 638.746, 446.757 639.965 M 590.500 640.077 C 566.548 644.828, 549.611 659.163, 541.251 681.758 C 539.283 687.080, 538.654 691.027, 538.267 700.500 C 537.485 719.668, 540.369 730.058, 550.033 742.883 C 561.942 758.688, 580.352 767, 603.450 767 C 616.600 767, 623.209 765.516, 634.946 759.926 C 649.779 752.862, 663.265 736.623, 667.348 720.908 C 670.732 707.884, 670.241 693.326, 666.012 681.293 C 659.402 662.486, 642.341 646.908, 622.500 641.560 C 615.108 639.568, 597.241 638.740, 590.500 640.077 M 736.916 640.522 C 723.183 643.857, 710.323 653.172, 706.190 662.780 C 701.234 674.301, 702.466 686.338, 709.594 696.020 C 715.624 704.211, 722.162 707.901, 744.447 715.690 C 766.342 723.342, 772 728.088, 772 738.802 C 772 746.604, 766.514 753.166, 758.423 755.043 C 748.736 757.289, 737.690 755.196, 729.572 749.576 C 723.707 745.515, 720.572 741.804, 715.965 733.469 C 711.630 725.626, 710.156 724, 707.380 724 C 703.582 724, 702.924 726.887, 703.222 742.236 L 703.500 756.500 710 759.752 C 728.425 768.970, 761.245 769.548, 778.096 760.951 C 784.967 757.446, 792.420 749.685, 795.495 742.832 C 799.184 734.611, 799.503 722.017, 796.208 714.670 C 790.622 702.215, 781.720 696.083, 756 686.973 C 737.843 680.542, 733.039 677.909, 730.499 672.998 C 727.054 666.336, 730.177 656.955, 737.142 653.040 C 742.876 649.817, 752.929 649.152, 760.066 651.522 C 768.855 654.441, 778.250 664.428, 781.074 673.853 C 782.600 678.947, 784.035 680.241, 787.690 679.822 L 790.500 679.500 790.776 664.904 L 791.052 650.308 787.276 647.710 C 782.192 644.212, 779.896 643.438, 767.510 641.048 C 755.462 638.723, 745.064 638.544, 736.916 640.522 M 448.147 652.156 C 435.977 658.180, 430.175 676.997, 431.295 706.812 C 431.928 723.679, 433.301 730.701, 437.882 740.500 C 442.968 751.378, 449.707 756.016, 460.372 755.978 C 470.509 755.942, 477.898 751.092, 482.858 741.222 C 487.325 732.333, 489.436 714.924, 488.076 698.200 C 486.087 673.754, 479.053 657.639, 467.885 651.941 C 462.605 649.248, 453.829 649.344, 448.147 652.156 M 592.500 651.659 C 583.401 656.447, 577.762 667.130, 575.275 684.294 C 573.896 693.810, 573.822 697.578, 574.785 709.282 C 576.697 732.523, 581.639 745.798, 590.827 752.373 C 594.536 755.027, 596.209 755.522, 602.539 755.842 C 608.644 756.150, 610.726 755.827, 614.547 753.977 C 619.853 751.409, 625.002 745.041, 627.884 737.485 C 632.802 724.587, 633.155 696.737, 628.627 678.895 C 624.869 664.090, 619.845 656.002, 611.885 651.941 C 607.130 649.515, 596.857 649.366, 592.500 651.659" stroke="none" fill="#000000" fill-rule="evenodd"/><path d="M 462.500 125.662 C 432.487 129.282, 405.537 139.239, 383.517 154.843 C 371.739 163.189, 356.571 178.764, 348.730 190.563 C 336.798 208.518, 330.987 224.042, 328.349 245.009 C 326.857 256.861, 326.865 258.795, 328.450 272.135 C 329.390 280.036, 330.409 290.663, 330.715 295.752 C 331.255 304.713, 331.170 305.213, 327.993 311.667 C 325.586 316.555, 321.708 321.456, 313.434 330.069 C 299.787 344.273, 297.130 348.108, 296.345 354.731 C 295.476 362.069, 298.224 366.444, 307.170 371.965 C 316.689 377.838, 317.302 379.464, 312.582 386.316 C 307.010 394.406, 307.450 399.952, 314.050 404.805 L 317.995 407.707 315.016 412.103 C 310.566 418.669, 310.912 422.347, 316.462 427.516 C 322.512 433.149, 323.279 435.511, 321.401 442.703 C 318.031 455.608, 319.750 463.831, 327.230 470.589 C 336.538 478.998, 348.083 481.332, 376 480.448 L 395.500 479.831 402.785 483.393 C 414.944 489.339, 424.058 500.349, 433.646 520.675 C 440.658 535.542, 446.279 552.016, 449.529 567.225 C 453.131 584.083, 453.319 584.474, 455.437 579.500 C 458.957 571.232, 460.293 563.595, 460.336 551.500 C 460.428 525.241, 450.538 498.574, 432.467 476.360 L 429.913 473.220 441.695 467.555 C 448.174 464.439, 457.970 458.898, 463.463 455.241 C 472.774 449.042, 487.817 435.386, 492.920 428.500 L 495.144 425.500 494.496 429 C 494.139 430.925, 493.223 435.875, 492.459 440 C 490.781 449.058, 490.605 465.486, 492.080 475.308 C 495.727 499.595, 503.528 516.075, 519.176 532.549 C 535.925 550.181, 557.065 560.463, 583.877 564.019 C 591.923 565.086, 610.017 564.464, 609.985 563.121 C 609.977 562.779, 607.165 561.445, 603.735 560.155 C 595.547 557.077, 581.015 548.945, 573.500 543.238 C 554.327 528.676, 541.760 511.461, 534.598 489.945 C 528.862 472.714, 527.906 465.033, 527.007 429 C 526.124 393.552, 525.158 385.557, 519.834 369.658 C 512.127 346.644, 500.382 329.139, 468.063 292.500 C 434.032 253.921, 423.401 234.754, 422.302 210 C 421.505 192.028, 425.873 178.437, 436.123 167 L 440.156 162.500 439.328 168 C 438.873 171.025, 438.547 179.575, 438.605 187 C 438.694 198.520, 439.101 201.820, 441.380 209.500 C 447.579 230.393, 459.010 248.926, 488.535 285.956 C 498.822 298.856, 510.544 314.079, 514.586 319.784 C 522.714 331.258, 532.584 350.371, 536.461 362.143 C 540.279 373.737, 544.684 397.792, 545.957 414 C 549.369 457.446, 557.428 484.657, 574.111 509.065 C 598.189 544.292, 633.657 563.584, 671.034 561.784 C 676.570 561.518, 681.542 560.858, 682.081 560.319 C 682.723 559.677, 680.195 558.397, 674.781 556.621 C 663.055 552.775, 647.355 544.399, 638.500 537.264 C 632.811 532.680, 619.146 518.874, 615.073 513.595 C 598.830 492.540, 590.038 467.975, 583.959 426.661 C 576.216 374.035, 569.564 349.088, 556.435 323.445 C 545.836 302.742, 538.212 291.648, 511.459 258 C 481.859 220.771, 475.663 212.310, 468.069 198.745 C 464.799 192.903, 460.840 182.827, 461.540 182.126 C 462.098 181.568, 471.279 187.605, 479.436 193.892 C 502.020 211.300, 521.273 233.430, 540.433 264 C 548.739 277.252, 562.799 304.873, 571.485 325 C 583.641 353.167, 591.610 366.832, 611.308 393.286 C 634.441 424.353, 646.113 447.457, 651.593 473.027 C 655.191 489.814, 653.701 513.520, 648.034 529.644 C 646.929 532.787, 646.230 535.564, 646.481 535.814 C 649.014 538.347, 666.155 522.518, 672.276 511.993 C 679.386 499.766, 683.786 480.417, 682.482 467.119 C 680.179 443.656, 671.304 423.814, 648.111 390.282 C 625.643 357.796, 616.014 339.622, 595.508 291 C 578.529 250.738, 554.300 212.737, 531.541 190.674 C 513.250 172.942, 490.909 160.300, 474.448 158.365 C 471.451 158.013, 469 157.337, 469 156.862 C 469 154.280, 497.493 157.187, 510.500 161.097 C 520.825 164.200, 536.658 171.969, 546.681 178.850 C 580.689 202.197, 603.994 238.466, 623.158 297.869 C 639.416 348.261, 644.469 358.665, 660.794 375.356 C 670.909 385.699, 679.186 390.825, 692.291 394.866 C 705.274 398.869, 724.152 398.554, 732.500 394.194 L 735.500 392.627 731.500 391.784 C 700.623 385.272, 684.298 368.439, 669.156 327.500 C 666.918 321.450, 661.881 306.150, 657.962 293.500 C 654.043 280.850, 648.572 264.425, 645.805 257 C 631.228 217.887, 608.979 185.061, 582 162.860 C 558.540 143.556, 528.250 130.023, 499.678 126.079 C 492.443 125.081, 469.454 124.823, 462.500 125.662 M 391.255 192.476 C 381.281 200.492, 375.777 206.659, 367.137 219.500 C 355.269 237.136, 350.205 252.423, 345.604 284.500 C 342.895 303.384, 339.750 314.602, 335.160 321.744 C 333.479 324.360, 327.126 331.414, 321.041 337.420 C 305.480 352.781, 304.353 357.467, 314.536 364.481 C 325.917 372.319, 328.779 379.378, 323.673 387.018 C 319.640 393.051, 319.691 393.556, 324.798 398.086 C 327.384 400.381, 331.863 403.839, 334.750 405.771 C 337.637 407.703, 340 409.635, 340 410.064 C 340 410.834, 336.153 412.232, 330.715 413.438 C 328.946 413.830, 327.564 415.018, 326.927 416.692 C 326.056 418.982, 326.333 419.749, 329.040 422.542 C 333.477 427.119, 334.029 430.901, 331.814 441.522 C 329.651 451.893, 330.106 456.784, 333.622 460.963 C 337.960 466.118, 343.634 467.509, 360 467.429 C 376.383 467.348, 384.563 466.240, 403.962 461.471 C 428.573 455.421, 445.336 447.172, 458.846 434.463 C 467.775 426.064, 473.759 417.387, 477.210 407.839 C 479.179 402.387, 479.488 399.681, 479.411 388.500 C 479.335 377.482, 478.920 374.177, 476.687 366.824 C 470.858 347.634, 460.378 330.152, 441.425 308 C 408.047 268.990, 399.874 256.556, 394.946 237.289 C 391.176 222.547, 392.775 202.432, 398.646 190.750 C 399.959 188.137, 400.646 186, 400.173 186 C 399.699 186, 395.686 188.914, 391.255 192.476 M 370.500 267.616 C 361.248 269.995, 355 274.424, 355 278.604 C 355 280.852, 358.090 285.008, 359.750 284.993 C 360.163 284.989, 363.758 283.880, 367.740 282.529 C 382.366 277.565, 389.865 278.301, 405.211 286.210 C 409.770 288.560, 413.899 290.656, 414.386 290.870 C 416.578 291.829, 410.068 282.402, 405.747 278.360 C 398.632 271.705, 390.101 268.059, 380.411 267.532 C 376.060 267.295, 371.600 267.333, 370.500 267.616 M 354.943 308.250 C 354.912 308.387, 354.759 311.783, 354.603 315.796 C 354.335 322.703, 354.462 323.192, 356.981 324.986 C 363.146 329.376, 375.807 330.051, 386.002 326.534 C 390.481 324.989, 406 313.711, 406 312.001 C 406 311.480, 404.847 311.495, 403.250 312.035 C 398.427 313.668, 383.364 314.614, 374.523 313.839 C 368.485 313.309, 364.476 312.340, 360.901 310.544 C 355.997 308.081, 355.063 307.721, 354.943 308.250 M 673.500 596.296 C 665.007 600.373, 660.882 610.946, 664.801 618.590 C 667.724 624.292, 670.721 626.585, 677.820 628.552 C 683.838 630.219, 684.110 630.427, 683.502 632.902 C 682.419 637.306, 677.975 644.068, 672.340 649.886 C 666.825 655.580, 666.190 658.007, 670.219 657.990 C 678.153 657.956, 693.464 645.410, 699.076 634.345 C 702.225 628.136, 702.500 626.866, 702.500 618.546 C 702.500 610.752, 702.154 608.883, 700 605.044 C 694.514 595.266, 683.332 591.575, 673.500 596.296 M 228.365 599.683 C 227.934 601.400, 228.109 602.536, 228.843 602.781 C 233.808 604.436, 238.596 608.057, 240.423 611.540 C 242.440 615.386, 242.509 617.079, 242.822 670.500 C 242.998 700.750, 242.843 730.110, 242.476 735.744 C 241.691 747.792, 239.919 751.377, 233.208 754.493 C 228.892 756.497, 226.730 760.130, 228.688 762.088 C 229.248 762.648, 242.173 762.922, 260.565 762.765 L 291.500 762.500 291.500 760.020 C 291.500 758.141, 290.482 756.978, 287.303 755.224 C 284.995 753.951, 282.070 751.242, 280.803 749.205 C 278.594 745.651, 278.487 744.529, 278.183 721.599 L 277.867 697.698 283.175 692.322 C 286.095 689.366, 289.036 687.071, 289.711 687.223 C 291.377 687.599, 335 750.057, 335 752.067 C 335 752.946, 333.313 754.757, 331.250 756.092 C 328.985 757.557, 327.500 759.307, 327.500 760.509 C 327.500 762.457, 328.218 762.500, 361 762.500 L 394.500 762.500 394.500 759.602 C 394.500 757.004, 393.976 756.534, 389.438 755.054 C 381.826 752.573, 376.066 747.781, 368.339 737.500 C 365.601 733.858, 344.459 703.264, 323.229 672.225 L 314.834 659.950 321.818 652.225 C 334.330 638.386, 356.353 617.494, 362.879 613.273 C 366.387 611.004, 372.012 608.169, 375.379 606.973 C 387.630 602.622, 387.129 602.923, 386.803 600.107 L 386.500 597.500 356.322 597.235 C 326.602 596.975, 326.134 597.002, 325.489 599.033 C 324.660 601.646, 326.342 603.696, 329.965 604.492 C 336.346 605.894, 338.037 611.055, 334.586 618.594 C 331.027 626.366, 320.414 639.283, 300.125 660.534 C 295.381 665.503, 288.650 672.591, 285.167 676.284 C 281.684 679.978, 278.646 683, 278.417 683 C 277.432 683, 278.057 615.981, 279.067 613.315 C 280.513 609.497, 283.738 606.196, 288.313 603.850 C 291.233 602.353, 292.052 601.381, 291.813 599.698 L 291.500 597.500 260.273 597.236 L 229.045 596.972 228.365 599.683 M 446.757 639.965 C 422.798 644.346, 404.397 660.119, 396.241 683.267 C 394.042 689.509, 393.680 692.281, 393.597 703.500 C 393.485 718.547, 395.291 725.988, 401.718 736.953 C 419.619 767.495, 462.928 776.717, 496.050 757.040 C 508.926 749.390, 519.609 734.789, 523.485 719.540 C 525.436 711.863, 525.450 695.147, 523.510 687.701 C 517.374 664.142, 501.367 647.766, 478.392 641.540 C 471.379 639.640, 453.424 638.746, 446.757 639.965 M 590.500 640.077 C 566.548 644.828, 549.611 659.163, 541.251 681.758 C 539.283 687.080, 538.654 691.027, 538.267 700.500 C 537.485 719.668, 540.369 730.058, 550.033 742.883 C 561.942 758.688, 580.352 767, 603.450 767 C 616.600 767, 623.209 765.516, 634.946 759.926 C 649.779 752.862, 663.265 736.623, 667.348 720.908 C 670.732 707.884, 670.241 693.326, 666.012 681.293 C 659.402 662.486, 642.341 646.908, 622.500 641.560 C 615.108 639.568, 597.241 638.740, 590.500 640.077 M 736.916 640.522 C 723.183 643.857, 710.323 653.172, 706.190 662.780 C 701.234 674.301, 702.466 686.338, 709.594 696.020 C 715.624 704.211, 722.162 707.901, 744.447 715.690 C 766.342 723.342, 772 728.088, 772 738.802 C 772 746.604, 766.514 753.166, 758.423 755.043 C 748.736 757.289, 737.690 755.196, 729.572 749.576 C 723.707 745.515, 720.572 741.804, 715.965 733.469 C 711.630 725.626, 710.156 724, 707.380 724 C 703.582 724, 702.924 726.887, 703.222 742.236 L 703.500 756.500 710 759.752 C 728.425 768.970, 761.245 769.548, 778.096 760.951 C 784.967 757.446, 792.420 749.685, 795.495 742.832 C 799.184 734.611, 799.503 722.017, 796.208 714.670 C 790.622 702.215, 781.720 696.083, 756 686.973 C 737.843 680.542, 733.039 677.909, 730.499 672.998 C 727.054 666.336, 730.177 656.955, 737.142 653.040 C 742.876 649.817, 752.929 649.152, 760.066 651.522 C 768.855 654.441, 778.250 664.428, 781.074 673.853 C 782.600 678.947, 784.035 680.241, 787.690 679.822 L 790.500 679.500 790.776 664.904 L 791.052 650.308 787.276 647.710 C 782.192 644.212, 779.896 643.438, 767.510 641.048 C 755.462 638.723, 745.064 638.544, 736.916 640.522 M 448.147 652.156 C 435.977 658.180, 430.175 676.997, 431.295 706.812 C 431.928 723.679, 433.301 730.701, 437.882 740.500 C 442.968 751.378, 449.707 756.016, 460.372 755.978 C 470.509 755.942, 477.898 751.092, 482.858 741.222 C 487.325 732.333, 489.436 714.924, 488.076 698.200 C 486.087 673.754, 479.053 657.639, 467.885 651.941 C 462.605 649.248, 453.829 649.344, 448.147 652.156 M 592.500 651.659 C 583.401 656.447, 577.762 667.130, 575.275 684.294 C 573.896 693.810, 573.822 697.578, 574.785 709.282 C 576.697 732.523, 581.639 745.798, 590.827 752.373 C 594.536 755.027, 596.209 755.522, 602.539 755.842 C 608.644 756.150, 610.726 755.827, 614.547 753.977 C 619.853 751.409, 625.002 745.041, 627.884 737.485 C 632.802 724.587, 633.155 696.737, 628.627 678.895 C 624.869 664.090, 619.845 656.002, 611.885 651.941 C 607.130 649.515, 596.857 649.366, 592.500 651.659" stroke="none" fill="#000000" fill-rule="evenodd"/><path d="M 462.500 125.662 C 432.487 129.282, 405.537 139.239, 383.517 154.843 C 371.739 163.189, 356.571 178.764, 348.730 190.563 C 336.798 208.518, 330.987 224.042, 328.349 245.009 C 326.857 256.861, 326.865 258.795, 328.450 272.135 C 329.390 280.036, 330.409 290.663, 330.715 295.752 C 331.255 304.713, 331.170 305.213, 327.993 311.667 C 325.586 316.555, 321.708 321.456, 313.434 330.069 C 299.787 344.273, 297.130 348.108, 296.345 354.731 C 295.476 362.069, 298.224 366.444, 307.170 371.965 C 316.689 377.838, 317.302 379.464, 312.582 386.316 C 307.010 394.406, 307.450 399.952, 314.050 404.805 L 317.995 407.707 315.016 412.103 C 310.566 418.669, 310.912 422.347, 316.462 427.516 C 322.512 433.149, 323.279 435.511, 321.401 442.703 C 318.031 455.608, 319.750 463.831, 327.230 470.589 C 336.538 478.998, 348.083 481.332, 376 480.448 L 395.500 479.831 402.785 483.393 C 414.944 489.339, 424.058 500.349, 433.646 520.675 C 440.658 535.542, 446.279 552.016, 449.529 567.225 C 453.131 584.083, 453.319 584.474, 455.437 579.500 C 458.957 571.232, 460.293 563.595, 460.336 551.500 C 460.428 525.241, 450.538 498.574, 432.467 476.360 L 429.913 473.220 441.695 467.555 C 448.174 464.439, 457.970 458.898, 463.463 455.241 C 472.774 449.042, 487.817 435.386, 492.920 428.500 L 495.144 425.500 494.496 429 C 494.139 430.925, 493.223 435.875, 492.459 440 C 490.781 449.058, 490.605 465.486, 492.080 475.308 C 495.727 499.595, 503.528 516.075, 519.176 532.549 C 535.925 550.181, 557.065 560.463, 583.877 564.019 C 591.923 565.086, 610.017 564.464, 609.985 563.121 C 609.977 562.779, 607.165 561.445, 603.735 560.155 C 595.547 557.077, 581.015 548.945, 573.500 543.238 C 554.327 528.676, 541.760 511.461, 534.598 489.945 C 528.862 472.714, 527.906 465.033, 527.007 429 C 526.124 393.552, 525.158 385.557, 519.834 369.658 C 512.127 346.644, 500.382 329.139, 468.063 292.500 C 434.032 253.921, 423.401 234.754, 422.302 210 C 421.505 192.028, 425.873 178.437, 436.123 167 L 440.156 162.500 439.328 168 C 438.873 171.025, 438.547 179.575, 438.605 187 C 438.694 198.520, 439.101 201.820, 441.380 209.500 C 447.579 230.393, 459.010 248.926, 488.535 285.956 C 498.822 298.856, 510.544 314.079, 514.586 319.784 C 522.714 331.258, 532.584 350.371, 536.461 362.143 C 540.279 373.737, 544.684 397.792, 545.957 414 C 549.369 457.446, 557.428 484.657, 574.111 509.065 C 598.189 544.292, 633.657 563.584, 671.034 561.784 C 676.570 561.518, 681.542 560.858, 682.081 560.319 C 682.723 559.677, 680.195 558.397, 674.781 556.621 C 663.055 552.775, 647.355 544.399, 638.500 537.264 C 632.811 532.680, 619.146 518.874, 615.073 513.595 C 598.830 492.540, 590.038 467.975, 583.959 426.661 C 576.216 374.035, 569.564 349.088, 556.435 323.445 C 545.836 302.742, 538.212 291.648, 511.459 258 C 481.859 220.771, 475.663 212.310, 468.069 198.745 C 464.799 192.903, 460.840 182.827, 461.540 182.126 C 462.098 181.568, 471.279 187.605, 479.436 193.892 C 502.020 211.300, 521.273 233.430, 540.433 264 C 548.739 277.252, 562.799 304.873, 571.485 325 C 583.641 353.167, 591.610 366.832, 611.308 393.286 C 634.441 424.353, 646.113 447.457, 651.593 473.027 C 655.191 489.814, 653.701 513.520, 648.034 529.644 C 646.929 532.787, 646.230 535.564, 646.481 535.814 C 649.014 538.347, 666.155 522.518, 672.276 511.993 C 679.386 499.766, 683.786 480.417, 682.482 467.119 C 680.179 443.656, 671.304 423.814, 648.111 390.282 C 625.643 357.796, 616.014 339.622, 595.508 291 C 578.529 250.738, 554.300 212.737, 531.541 190.674 C 513.250 172.942, 490.909 160.300, 474.448 158.365 C 471.451 158.013, 469 157.337, 469 156.862 C 469 154.280, 497.493 157.187, 510.500 161.097 C 520.825 164.200, 536.658 171.969, 546.681 178.850 C 580.689 202.197, 603.994 238.466, 623.158 297.869 C 639.416 348.261, 644.469 358.665, 660.794 375.356 C 670.909 385.699, 679.186 390.825, 692.291 394.866 C 705.274 398.869, 724.152 398.554, 732.500 394.194 L 735.500 392.627 731.500 391.784 C 700.623 385.272, 684.298 368.439, 669.156 327.500 C 666.918 321.450, 661.881 306.150, 657.962 293.500 C 654.043 280.850, 648.572 264.425, 645.805 257 C 631.228 217.887, 608.979 185.061, 582 162.860 C 558.540 143.556, 528.250 130.023, 499.678 126.079 C 492.443 125.081, 469.454 124.823, 462.500 125.662 M 391.255 192.476 C 381.281 200.492, 375.777 206.659, 367.137 219.500 C 355.269 237.136, 350.205 252.423, 345.604 284.500 C 342.895 303.384, 339.750 314.602, 335.160 321.744 C 333.479 324.360, 327.126 331.414, 321.041 337.420 C 305.480 352.781, 304.353 357.467, 314.536 364.481 C 325.917 372.319, 328.779 379.378, 323.673 387.018 C 319.640 393.051, 319.691 393.556, 324.798 398.086 C 327.384 400.381, 331.863 403.839, 334.750 405.771 C 337.637 407.703, 340 409.635, 340 410.064 C 340 410.834, 336.153 412.232, 330.715 413.438 C 328.946 413.830, 327.564 415.018, 326.927 416.692 C 326.056 418.982, 326.333 419.749, 329.040 422.542 C 333.477 427.119, 334.029 430.901, 331.814 441.522 C 329.651 451.893, 330.106 456.784, 333.622 460.963 C 337.960 466.118, 343.634 467.509, 360 467.429 C 376.383 467.348, 384.563 466.240, 403.962 461.471 C 428.573 455.421, 445.336 447.172, 458.846 434.463 C 467.775 426.064, 473.759 417.387, 477.210 407.839 C 479.179 402.387, 479.488 399.681, 479.411 388.500 C 479.335 377.482, 478.920 374.177, 476.687 366.824 C 470.858 347.634, 460.378 330.152, 441.425 308 C 408.047 268.990, 399.874 256.556, 394.946 237.289 C 391.176 222.547, 392.775 202.432, 398.646 190.750 C 399.959 188.137, 400.646 186, 400.173 186 C 399.699 186, 395.686 188.914, 391.255 192.476 M 370.500 267.616 C 361.248 269.995, 355 274.424, 355 278.604 C 355 280.852, 358.090 285.008, 359.750 284.993 C 360.163 284.989, 363.758 283.880, 367.740 282.529 C 382.366 277.565, 389.865 278.301, 405.211 286.210 C 409.770 288.560, 413.899 290.656, 414.386 290.870 C 416.578 291.829, 410.068 282.402, 405.747 278.360 C 398.632 271.705, 390.101 268.059, 380.411 267.532 C 376.060 267.295, 371.600 267.333, 370.500 267.616 M 354.943 308.250 C 354.912 308.387, 354.759 311.783, 354.603 315.796 C 354.335 322.703, 354.462 323.192, 356.981 324.986 C 363.146 329.376, 375.807 330.051, 386.002 326.534 C 390.481 324.989, 406 313.711, 406 312.001 C 406 311.480, 404.847 311.495, 403.250 312.035 C 398.427 313.668, 383.364 314.614, 374.523 313.839 C 368.485 313.309, 364.476 312.340, 360.901 310.544 C 355.997 308.081, 355.063 307.721, 354.943 308.250 M 673.500 596.296 C 665.007 600.373, 660.882 610.946, 664.801 618.590 C 667.724 624.292, 670.721 626.585, 677.820 628.552 C 683.838 630.219, 684.110 630.427, 683.502 632.902 C 682.419 637.306, 677.975 644.068, 672.340 649.886 C 666.825 655.580, 666.190 658.007, 670.219 657.990 C 678.153 657.956, 693.464 645.410, 699.076 634.345 C 702.225 628.136, 702.500 626.866, 702.500 618.546 C 702.500 610.752, 702.154 608.883, 700 605.044 C 694.514 595.266, 683.332 591.575, 673.500 596.296 M 228.365 599.683 C 227.934 601.400, 228.109 602.536, 228.843 602.781 C 233.808 604.436, 238.596 608.057, 240.423 611.540 C 242.440 615.386, 242.509 617.079, 242.822 670.500 C 242.998 700.750, 242.843 730.110, 242.476 735.744 C 241.691 747.792, 239.919 751.377, 233.208 754.493 C 228.892 756.497, 226.730 760.130, 228.688 762.088 C 229.248 762.648, 242.173 762.922, 260.565 762.765 L 291.500 762.500 291.500 760.020 C 291.500 758.141, 290.482 756.978, 287.303 755.224 C 284.995 753.951, 282.070 751.242, 280.803 749.205 C 278.594 745.651, 278.487 744.529, 278.183 721.599 L 277.867 697.698 283.175 692.322 C 286.095 689.366, 289.036 687.071, 289.711 687.223 C 291.377 687.599, 335 750.057, 335 752.067 C 335 752.946, 333.313 754.757, 331.250 756.092 C 328.985 757.557, 327.500 759.307, 327.500 760.509 C 327.500 762.457, 328.218 762.500, 361 762.500 L 394.500 762.500 394.500 759.602 C 394.500 757.004, 393.976 756.534, 389.438 755.054 C 381.826 752.573, 376.066 747.781, 368.339 737.500 C 365.601 733.858, 344.459 703.264, 323.229 672.225 L 314.834 659.950 321.818 652.225 C 334.330 638.386, 356.353 617.494, 362.879 613.273 C 366.387 611.004, 372.012 608.169, 375.379 606.973 C 387.630 602.622, 387.129 602.923, 386.803 600.107 L 386.500 597.500 356.322 597.235 C 326.602 596.975, 326.134 597.002, 325.489 599.033 C 324.660 601.646, 326.342 603.696, 329.965 604.492 C 336.346 605.894, 338.037 611.055, 334.586 618.594 C 331.027 626.366, 320.414 639.283, 300.125 660.534 C 295.381 665.503, 288.650 672.591, 285.167 676.284 C 281.684 679.978, 278.646 683, 278.417 683 C 277.432 683, 278.057 615.981, 279.067 613.315 C 280.513 609.497, 283.738 606.196, 288.313 603.850 C 291.233 602.353, 292.052 601.381, 291.813 599.698 L 291.500 597.500 260.273 597.236 L 229.045 596.972 228.365 599.683 M 446.757 639.965 C 422.798 644.346, 404.397 660.119, 396.241 683.267 C 394.042 689.509, 393.680 692.281, 393.597 703.500 C 393.485 718.547, 395.291 725.988, 401.718 736.953 C 419.619 767.495, 462.928 776.717, 496.050 757.040 C 508.926 749.390, 519.609 734.789, 523.485 719.540 C 525.436 711.863, 525.450 695.147, 523.510 687.701 C 517.374 664.142, 501.367 647.766, 478.392 641.540 C 471.379 639.640, 453.424 638.746, 446.757 639.965 M 590.500 640.077 C 566.548 644.828, 549.611 659.163, 541.251 681.758 C 539.283 687.080, 538.654 691.027, 538.267 700.500 C 537.485 719.668, 540.369 730.058, 550.033 742.883 C 561.942 758.688, 580.352 767, 603.450 767 C 616.600 767, 623.209 765.516, 634.946 759.926 C 649.779 752.862, 663.265 736.623, 667.348 720.908 C 670.732 707.884, 670.241 693.326, 666.012 681.293 C 659.402 662.486, 642.341 646.908, 622.500 641.560 C 615.108 639.568, 597.241 638.740, 590.500 640.077 M 736.916 640.522 C 723.183 643.857, 710.323 653.172, 706.190 662.780 C 701.234 674.301, 702.466 686.338, 709.594 696.020 C 715.624 704.211, 722.162 707.901, 744.447 715.690 C 766.342 723.342, 772 728.088, 772 738.802 C 772 746.604, 766.514 753.166, 758.423 755.043 C 748.736 757.289, 737.690 755.196, 729.572 749.576 C 723.707 745.515, 720.572 741.804, 715.965 733.469 C 711.630 725.626, 710.156 724, 707.380 724 C 703.582 724, 702.924 726.887, 703.222 742.236 L 703.500 756.500 710 759.752 C 728.425 768.970, 761.245 769.548, 778.096 760.951 C 784.967 757.446, 792.420 749.685, 795.495 742.832 C 799.184 734.611, 799.503 722.017, 796.208 714.670 C 790.622 702.215, 781.720 696.083, 756 686.973 C 737.843 680.542, 733.039 677.909, 730.499 672.998 C 727.054 666.336, 730.177 656.955, 737.142 653.040 C 742.876 649.817, 752.929 649.152, 760.066 651.522 C 768.855 654.441, 778.250 664.428, 781.074 673.853 C 782.600 678.947, 784.035 680.241, 787.690 679.822 L 790.500 679.500 790.776 664.904 L 791.052 650.308 787.276 647.710 C 782.192 644.212, 779.896 643.438, 767.510 641.048 C 755.462 638.723, 745.064 638.544, 736.916 640.522 M 448.147 652.156 C 435.977 658.180, 430.175 676.997, 431.295 706.812 C 431.928 723.679, 433.301 730.701, 437.882 740.500 C 442.968 751.378, 449.707 756.016, 460.372 755.978 C 470.509 755.942, 477.898 751.092, 482.858 741.222 C 487.325 732.333, 489.436 714.924, 488.076 698.200 C 486.087 673.754, 479.053 657.639, 467.885 651.941 C 462.605 649.248, 453.829 649.344, 448.147 652.156 M 592.500 651.659 C 583.401 656.447, 577.762 667.130, 575.275 684.294 C 573.896 693.810, 573.822 697.578, 574.785 709.282 C 576.697 732.523, 581.639 745.798, 590.827 752.373 C 594.536 755.027, 596.209 755.522, 602.539 755.842 C 608.644 756.150, 610.726 755.827, 614.547 753.977 C 619.853 751.409, 625.002 745.041, 627.884 737.485 C 632.802 724.587, 633.155 696.737, 628.627 678.895 C 624.869 664.090, 619.845 656.002, 611.885 651.941 C 607.130 649.515, 596.857 649.366, 592.500 651.659" stroke="none" fill="#000000" fill-rule="evenodd"/><path d="M 462.500 125.662 C 432.487 129.282, 405.537 139.239, 383.517 154.843 C 371.739 163.189, 356.571 178.764, 348.730 190.563 C 336.798 208.518, 330.987 224.042, 328.349 245.009 C 326.857 256.861, 326.865 258.795, 328.450 272.135 C 329.390 280.036, 330.409 290.663, 330.715 295.752 C 331.255 304.713, 331.170 305.213, 327.993 311.667 C 325.586 316.555, 321.708 321.456, 313.434 330.069 C 299.787 344.273, 297.130 348.108, 296.345 354.731 C 295.476 362.069, 298.224 366.444, 307.170 371.965 C 316.689 377.838, 317.302 379.464, 312.582 386.316 C 307.010 394.406, 307.450 399.952, 314.050 404.805 L 317.995 407.707 315.016 412.103 C 310.566 418.669, 310.912 422.347, 316.462 427.516 C 322.512 433.149, 323.279 435.511, 321.401 442.703 C 318.031 455.608, 319.750 463.831, 327.230 470.589 C 336.538 478.998, 348.083 481.332, 376 480.448 L 395.500 479.831 402.785 483.393 C 414.944 489.339, 424.058 500.349, 433.646 520.675 C 440.658 535.542, 446.279 552.016, 449.529 567.225 C 453.131 584.083, 453.319 584.474, 455.437 579.500 C 458.957 571.232, 460.293 563.595, 460.336 551.500 C 460.428 525.241, 450.538 498.574, 432.467 476.360 L 429.913 473.220 441.695 467.555 C 448.174 464.439, 457.970 458.898, 463.463 455.241 C 472.774 449.042, 487.817 435.386, 492.920 428.500 L 495.144 425.500 494.496 429 C 494.139 430.925, 493.223 435.875, 492.459 440 C 490.781 449.058, 490.605 465.486, 492.080 475.308 C 495.727 499.595, 503.528 516.075, 519.176 532.549 C 535.925 550.181, 557.065 560.463, 583.877 564.019 C 591.923 565.086, 610.017 564.464, 609.985 563.121 C 609.977 562.779, 607.165 561.445, 603.735 560.155 C 595.547 557.077, 581.015 548.945, 573.500 543.238 C 554.327 528.676, 541.760 511.461, 534.598 489.945 C 528.862 472.714, 527.906 465.033, 527.007 429 C 526.124 393.552, 525.158 385.557, 519.834 369.658 C 512.127 346.644, 500.382 329.139, 468.063 292.500 C 434.032 253.921, 423.401 234.754, 422.302 210 C 421.505 192.028, 425.873 178.437, 436.123 167 L 440.156 162.500 439.328 168 C 438.873 171.025, 438.547 179.575, 438.605 187 C 438.694 198.520, 439.101 201.820, 441.380 209.500 C 447.579 230.393, 459.010 248.926, 488.535 285.956 C 498.822 298.856, 510.544 314.079, 514.586 319.784 C 522.714 331.258, 532.584 350.371, 536.461 362.143 C 540.279 373.737, 544.684 397.792, 545.957 414 C 549.369 457.446, 557.428 484.657, 574.111 509.065 C 598.189 544.292, 633.657 563.584, 671.034 561.784 C 676.570 561.518, 681.542 560.858, 682.081 560.319 C 682.723 559.677, 680.195 558.397, 674.781 556.621 C 663.055 552.775, 647.355 544.399, 638.500 537.264 C 632.811 532.680, 619.146 518.874, 615.073 513.595 C 598.830 492.540, 590.038 467.975, 583.959 426.661 C 576.216 374.035, 569.564 349.088, 556.435 323.445 C 545.836 302.742, 538.212 291.648, 511.459 258 C 481.859 220.771, 475.663 212.310, 468.069 198.745 C 464.799 192.903, 460.840 182.827, 461.540 182.126 C 462.098 181.568, 471.279 187.605, 479.436 193.892 C 502.020 211.300, 521.273 233.430, 540.433 264 C 548.739 277.252, 562.799 304.873, 571.485 325 C 583.641 353.167, 591.610 366.832, 611.308 393.286 C 634.441 424.353, 646.113 447.457, 651.593 473.027 C 655.191 489.814, 653.701 513.520, 648.034 529.644 C 646.929 532.787, 646.230 535.564, 646.481 535.814 C 649.014 538.347, 666.155 522.518, 672.276 511.993 C 679.386 499.766, 683.786 480.417, 682.482 467.119 C 680.179 443.656, 671.304 423.814, 648.111 390.282 C 625.643 357.796, 616.014 339.622, 595.508 291 C 578.529 250.738, 554.300 212.737, 531.541 190.674 C 513.250 172.942, 490.909 160.300, 474.448 158.365 C 471.451 158.013, 469 157.337, 469 156.862 C 469 154.280, 497.493 157.187, 510.500 161.097 C 520.825 164.200, 536.658 171.969, 546.681 178.850 C 580.689 202.197, 603.994 238.466, 623.158 297.869 C 639.416 348.261, 644.469 358.665, 660.794 375.356 C 670.909 385.699, 679.186 390.825, 692.291 394.866 C 705.274 398.869, 724.152 398.554, 732.500 394.194 L 735.500 392.627 731.500 391.784 C 700.623 385.272, 684.298 368.439, 669.156 327.500 C 666.918 321.450, 661.881 306.150, 657.962 293.500 C 654.043 280.850, 648.572 264.425, 645.805 257 C 631.228 217.887, 608.979 185.061, 582 162.860 C 558.540 143.556, 528.250 130.023, 499.678 126.079 C 492.443 125.081, 469.454 124.823, 462.500 125.662 M 391.255 192.476 C 381.281 200.492, 375.777 206.659, 367.137 219.500 C 355.269 237.136, 350.205 252.423, 345.604 284.500 C 342.895 303.384, 339.750 314.602, 335.160 321.744 C 333.479 324.360, 327.126 331.414, 321.041 337.420 C 305.480 352.781, 304.353 357.467, 314.536 364.481 C 325.917 372.319, 328.779 379.378, 323.673 387.018 C 319.640 393.051, 319.691 393.556, 324.798 398.086 C 327.384 400.381, 331.863 403.839, 334.750 405.771 C 337.637 407.703, 340 409.635, 340 410.064 C 340 410.834, 336.153 412.232, 330.715 413.438 C 328.946 413.830, 327.564 415.018, 326.927 416.692 C 326.056 418.982, 326.333 419.749, 329.040 422.542 C 333.477 427.119, 334.029 430.901, 331.814 441.522 C 329.651 451.893, 330.106 456.784, 333.622 460.963 C 337.960 466.118, 343.634 467.509, 360 467.429 C 376.383 467.348, 384.563 466.240, 403.962 461.471 C 428.573 455.421, 445.336 447.172, 458.846 434.463 C 467.775 426.064, 473.759 417.387, 477.210 407.839 C 479.179 402.387, 479.488 399.681, 479.411 388.500 C 479.335 377.482, 478.920 374.177, 476.687 366.824 C 470.858 347.634, 460.378 330.152, 441.425 308 C 408.047 268.990, 399.874 256.556, 394.946 237.289 C 391.176 222.547, 392.775 202.432, 398.646 190.750 C 399.959 188.137, 400.646 186, 400.173 186 C 399.699 186, 395.686 188.914, 391.255 192.476 M 370.500 267.616 C 361.248 269.995, 355 274.424, 355 278.604 C 355 280.852, 358.090 285.008, 359.750 284.993 C 360.163 284.989, 363.758 283.880, 367.740 282.529 C 382.366 277.565, 389.865 278.301, 405.211 286.210 C 409.770 288.560, 413.899 290.656, 414.386 290.870 C 416.578 291.829, 410.068 282.402, 405.747 278.360 C 398.632 271.705, 390.101 268.059, 380.411 267.532 C 376.060 267.295, 371.600 267.333, 370.500 267.616 M 354.943 308.250 C 354.912 308.387, 354.759 311.783, 354.603 315.796 C 354.335 322.703, 354.462 323.192, 356.981 324.986 C 363.146 329.376, 375.807 330.051, 386.002 326.534 C 390.481 324.989, 406 313.711, 406 312.001 C 406 311.480, 404.847 311.495, 403.250 312.035 C 398.427 313.668, 383.364 314.614, 374.523 313.839 C 368.485 313.309, 364.476 312.340, 360.901 310.544 C 355.997 308.081, 355.063 307.721, 354.943 308.250 M 673.500 596.296 C 665.007 600.373, 660.882 610.946, 664.801 618.590 C 667.724 624.292, 670.721 626.585, 677.820 628.552 C 683.838 630.219, 684.110 630.427, 683.502 632.902 C 682.419 637.306, 677.975 644.068, 672.340 649.886 C 666.825 655.580, 666.190 658.007, 670.219 657.990 C 678.153 657.956, 693.464 645.410, 699.076 634.345 C 702.225 628.136, 702.500 626.866, 702.500 618.546 C 702.500 610.752, 702.154 608.883, 700 605.044 C 694.514 595.266, 683.332 591.575, 673.500 596.296 M 228.365 599.683 C 227.934 601.400, 228.109 602.536, 228.843 602.781 C 233.808 604.436, 238.596 608.057, 240.423 611.540 C 242.440 615.386, 242.509 617.079, 242.822 670.500 C 242.998 700.750, 242.843 730.110, 242.476 735.744 C 241.691 747.792, 239.919 751.377, 233.208 754.493 C 228.892 756.497, 226.730 760.130, 228.688 762.088 C 229.248 762.648, 242.173 762.922, 260.565 762.765 L 291.500 762.500 291.500 760.020 C 291.500 758.141, 290.482 756.978, 287.303 755.224 C 284.995 753.951, 282.070 751.242, 280.803 749.205 C 278.594 745.651, 278.487 744.529, 278.183 721.599 L 277.867 697.698 283.175 692.322 C 286.095 689.366, 289.036 687.071, 289.711 687.223 C 291.377 687.599, 335 750.057, 335 752.067 C 335 752.946, 333.313 754.757, 331.250 756.092 C 328.985 757.557, 327.500 759.307, 327.500 760.509 C 327.500 762.457, 328.218 762.500, 361 762.500 L 394.500 762.500 394.500 759.602 C 394.500 757.004, 393.976 756.534, 389.438 755.054 C 381.826 752.573, 376.066 747.781, 368.339 737.500 C 365.601 733.858, 344.459 703.264, 323.229 672.225 L 314.834 659.950 321.818 652.225 C 334.330 638.386, 356.353 617.494, 362.879 613.273 C 366.387 611.004, 372.012 608.169, 375.379 606.973 C 387.630 602.622, 387.129 602.923, 386.803 600.107 L 386.500 597.500 356.322 597.235 C 326.602 596.975, 326.134 597.002, 325.489 599.033 C 324.660 601.646, 326.342 603.696, 329.965 604.492 C 336.346 605.894, 338.037 611.055, 334.586 618.594 C 331.027 626.366, 320.414 639.283, 300.125 660.534 C 295.381 665.503, 288.650 672.591, 285.167 676.284 C 281.684 679.978, 278.646 683, 278.417 683 C 277.432 683, 278.057 615.981, 279.067 613.315 C 280.513 609.497, 283.738 606.196, 288.313 603.850 C 291.233 602.353, 292.052 601.381, 291.813 599.698 L 291.500 597.500 260.273 597.236 L 229.045 596.972 228.365 599.683 M 446.757 639.965 C 422.798 644.346, 404.397 660.119, 396.241 683.267 C 394.042 689.509, 393.680 692.281, 393.597 703.500 C 393.485 718.547, 395.291 725.988, 401.718 736.953 C 419.619 767.495, 462.928 776.717, 496.050 757.040 C 508.926 749.390, 519.609 734.789, 523.485 719.540 C 525.436 711.863, 525.450 695.147, 523.510 687.701 C 517.374 664.142, 501.367 647.766, 478.392 641.540 C 471.379 639.640, 453.424 638.746, 446.757 639.965 M 590.500 640.077 C 566.548 644.828, 549.611 659.163, 541.251 681.758 C 539.283 687.080, 538.654 691.027, 538.267 700.500 C 537.485 719.668, 540.369 730.058, 550.033 742.883 C 561.942 758.688, 580.352 767, 603.450 767 C 616.600 767, 623.209 765.516, 634.946 759.926 C 649.779 752.862, 663.265 736.623, 667.348 720.908 C 670.732 707.884, 670.241 693.326, 666.012 681.293 C 659.402 662.486, 642.341 646.908, 622.500 641.560 C 615.108 639.568, 597.241 638.740, 590.500 640.077 M 736.916 640.522 C 723.183 643.857, 710.323 653.172, 706.190 662.780 C 701.234 674.301, 702.466 686.338, 709.594 696.020 C 715.624 704.211, 722.162 707.901, 744.447 715.690 C 766.342 723.342, 772 728.088, 772 738.802 C 772 746.604, 766.514 753.166, 758.423 755.043 C 748.736 757.289, 737.690 755.196, 729.572 749.576 C 723.707 745.515, 720.572 741.804, 715.965 733.469 C 711.630 725.626, 710.156 724, 707.380 724 C 703.582 724, 702.924 726.887, 703.222 742.236 L 703.500 756.500 710 759.752 C 728.425 768.970, 761.245 769.548, 778.096 760.951 C 784.967 757.446, 792.420 749.685, 795.495 742.832 C 799.184 734.611, 799.503 722.017, 796.208 714.670 C 790.622 702.215, 781.720 696.083, 756 686.973 C 737.843 680.542, 733.039 677.909, 730.499 672.998 C 727.054 666.336, 730.177 656.955, 737.142 653.040 C 742.876 649.817, 752.929 649.152, 760.066 651.522 C 768.855 654.441, 778.250 664.428, 781.074 673.853 C 782.600 678.947, 784.035 680.241, 787.690 679.822 L 790.500 679.500 790.776 664.904 L 791.052 650.308 787.276 647.710 C 782.192 644.212, 779.896 643.438, 767.510 641.048 C 755.462 638.723, 745.064 638.544, 736.916 640.522 M 448.147 652.156 C 435.977 658.180, 430.175 676.997, 431.295 706.812 C 431.928 723.679, 433.301 730.701, 437.882 740.500 C 442.968 751.378, 449.707 756.016, 460.372 755.978 C 470.509 755.942, 477.898 751.092, 482.858 741.222 C 487.325 732.333, 489.436 714.924, 488.076 698.200 C 486.087 673.754, 479.053 657.639, 467.885 651.941 C 462.605 649.248, 453.829 649.344, 448.147 652.156 M 592.500 651.659 C 583.401 656.447, 577.762 667.130, 575.275 684.294 C 573.896 693.810, 573.822 697.578, 574.785 709.282 C 576.697 732.523, 581.639 745.798, 590.827 752.373 C 594.536 755.027, 596.209 755.522, 602.539 755.842 C 608.644 756.150, 610.726 755.827, 614.547 753.977 C 619.853 751.409, 625.002 745.041, 627.884 737.485 C 632.802 724.587, 633.155 696.737, 628.627 678.895 C 624.869 664.090, 619.845 656.002, 611.885 651.941 C 607.130 649.515, 596.857 649.366, 592.500 651.659" stroke="none" fill="#000000" fill-rule="evenodd"/><path d="M 474.287 124.740 C 477.469 124.939, 482.419 124.937, 485.287 124.736 C 488.154 124.535, 485.550 124.372, 479.500 124.374 C 473.450 124.376, 471.104 124.541, 474.287 124.740 M 437.328 183.500 C 437.333 187.350, 437.513 188.802, 437.730 186.728 C 437.946 184.653, 437.943 181.503, 437.722 179.728 C 437.501 177.952, 437.324 179.650, 437.328 183.500 M 561 190.275 C 561 190.426, 564.487 193.914, 568.750 198.025 L 576.500 205.500 569.025 197.750 C 562.082 190.552, 561 189.544, 561 190.275 M 381.966 200.750 L 376.500 206.500 382.250 201.034 C 387.592 195.956, 388.458 195, 387.716 195 C 387.560 195, 384.972 197.588, 381.966 200.750 M 542.472 202.250 C 545.708 205.963, 548.542 209, 548.771 209 C 549.433 209, 541.458 199.703, 538.906 197.500 C 537.632 196.400, 539.237 198.537, 542.472 202.250 M 500 212.500 C 502.987 215.525, 505.657 218, 505.932 218 C 506.207 218, 503.987 215.525, 501 212.500 C 498.013 209.475, 495.343 207, 495.068 207 C 494.793 207, 497.013 209.475, 500 212.500 M 392.360 219 C 392.360 224.225, 392.529 226.363, 392.735 223.750 C 392.941 221.137, 392.941 216.863, 392.735 214.250 C 392.529 211.637, 392.360 213.775, 392.360 219 M 376.500 279.891 C 374.801 280.262, 377.619 280.546, 383 280.546 C 388.381 280.546, 391.199 280.262, 389.500 279.891 C 387.850 279.531, 384.925 279.237, 383 279.237 C 381.075 279.237, 378.150 279.531, 376.500 279.891 M 330.349 298 C 330.349 302.675, 330.522 304.587, 330.732 302.250 C 330.943 299.913, 330.943 296.087, 330.732 293.750 C 330.522 291.413, 330.349 293.325, 330.349 298 M 383.207 313.851 C 382.485 314.309, 384.473 314.490, 387.707 314.260 C 395.606 313.699, 396.644 313.171, 390 313.094 C 386.975 313.059, 383.918 313.400, 383.207 313.851 M 316.966 325.750 L 311.500 331.500 317.250 326.034 C 322.592 320.956, 323.458 320, 322.716 320 C 322.560 320, 319.972 322.587, 316.966 325.750 M 323.479 335.250 L 314.500 344.500 323.750 335.521 C 332.341 327.181, 333.455 326, 332.729 326 C 332.580 326, 328.418 330.163, 323.479 335.250 M 308.115 355.559 C 307.999 358.648, 309.214 360.808, 312.047 362.549 C 312.898 363.072, 312.712 362.693, 311.633 361.707 C 310.554 360.720, 309.347 358.245, 308.951 356.207 C 308.261 352.658, 308.225 352.630, 308.115 355.559 M 318.424 367.148 C 320.075 368.604, 322.495 371.079, 323.801 372.648 C 325.108 374.216, 325.726 374.600, 325.175 373.500 C 324.162 371.479, 319.794 367.199, 316.961 365.450 C 316.115 364.927, 316.773 365.691, 318.424 367.148 M 527.429 431.500 C 527.429 444.150, 527.573 449.187, 527.747 442.694 C 527.922 436.200, 527.921 425.850, 527.746 419.694 C 527.571 413.537, 527.428 418.850, 527.429 431.500 M 311.667 415.667 C 309.833 417.500, 311.131 423.106, 314.114 426.234 L 317.227 429.500 314.526 426.069 C 312.417 423.390, 311.904 421.800, 312.189 418.819 C 312.389 416.719, 312.503 415, 312.443 415 C 312.383 415, 312.033 415.300, 311.667 415.667 M 490.343 459.500 C 490.346 463.900, 490.522 465.576, 490.733 463.224 C 490.945 460.872, 490.942 457.272, 490.727 455.224 C 490.512 453.176, 490.339 455.100, 490.343 459.500 M 446 465.500 C 442.425 467.372, 439.850 468.925, 440.279 468.951 C 441.342 469.018, 453 463.092, 453 462.486 C 453 461.813, 453.235 461.713, 446 465.500 M 374.750 480.723 C 376.538 480.945, 379.462 480.945, 381.250 480.723 C 383.038 480.502, 381.575 480.320, 378 480.320 C 374.425 480.320, 372.962 480.502, 374.750 480.723 M 599 486.362 C 599 487.447, 604.968 499, 605.529 499 C 605.804 499, 604.619 496.188, 602.896 492.750 C 599.630 486.234, 599 485.202, 599 486.362 M 653.349 495 C 653.349 499.675, 653.522 501.587, 653.732 499.250 C 653.943 496.913, 653.943 493.087, 653.732 490.750 C 653.522 488.413, 653.349 490.325, 653.349 495 M 590 529.500 C 592.987 532.525, 595.657 535, 595.932 535 C 596.207 535, 593.987 532.525, 591 529.500 C 588.013 526.475, 585.343 524, 585.068 524 C 584.793 524, 587.013 526.475, 590 529.500 M 560.500 532 C 564.320 535.850, 567.671 539, 567.946 539 C 568.221 539, 565.320 535.850, 561.500 532 C 557.680 528.150, 554.329 525, 554.054 525 C 553.779 525, 556.680 528.150, 560.500 532 M 520.500 535 C 523.766 538.300, 526.662 541, 526.937 541 C 527.212 541, 524.766 538.300, 521.500 535 C 518.234 531.700, 515.338 529, 515.063 529 C 514.788 529, 517.234 531.700, 520.500 535 M 662.250 562.728 C 664.313 562.944, 667.688 562.944, 669.750 562.728 C 671.813 562.513, 670.125 562.336, 666 562.336 C 661.875 562.336, 660.188 562.513, 662.250 562.728 M 228.667 596.667 C 228.300 597.033, 228.007 597.821, 228.015 598.417 C 228.024 599.040, 228.375 598.957, 228.842 598.222 C 229.478 597.219, 236.349 597.003, 260.732 597.222 C 277.825 597.375, 291.602 597.163, 291.346 596.750 C 290.773 595.823, 229.591 595.742, 228.667 596.667 M 356.500 596.978 L 386.500 597.500 386.496 600.657 C 386.494 602.393, 386.831 603.604, 387.246 603.348 C 388.426 602.619, 388.130 598.530, 386.800 597.200 C 385.910 596.310, 377.961 596.059, 356.050 596.228 L 326.500 596.455 356.500 596.978 M 663.040 616.300 C 662.955 617.994, 665.935 622.610, 668.655 624.996 L 671.500 627.493 668.869 624.496 C 667.422 622.848, 665.527 620.150, 664.659 618.500 C 663.791 616.850, 663.062 615.860, 663.040 616.300 M 242.437 646 C 242.437 660.575, 242.577 666.538, 242.747 659.250 C 242.918 651.962, 242.918 640.038, 242.747 632.750 C 242.577 625.462, 242.437 631.425, 242.437 646 M 278.441 652 C 278.441 667.675, 278.579 674.087, 278.748 666.250 C 278.917 658.413, 278.917 645.587, 278.748 637.750 C 278.579 629.913, 278.441 636.325, 278.441 652 M 329 644.500 C 324.903 648.625, 321.775 652, 322.050 652 C 322.325 652, 325.903 648.625, 330 644.500 C 334.097 640.375, 337.225 637, 336.950 637 C 336.675 637, 333.097 640.375, 329 644.500 M 714.191 651.750 L 708.329 657.500 713.914 652.575 C 716.986 649.867, 719.928 647.279, 720.450 646.825 C 720.972 646.371, 721.097 646, 720.727 646 C 720.356 646, 717.415 648.587, 714.191 651.750 M 303.469 656.250 L 297.500 662.500 303.750 656.531 C 309.556 650.987, 310.458 650, 309.719 650 C 309.564 650, 306.751 652.813, 303.469 656.250 M 790.996 665.203 C 790.723 673.290, 790.851 679.554, 791.279 679.124 C 791.708 678.693, 791.931 672.077, 791.776 664.421 L 791.493 650.500 790.996 665.203 M 285.027 675.473 C 281.499 679.033, 278.812 682.082, 279.056 682.248 C 279.300 682.415, 282.390 679.502, 285.921 675.775 C 294.091 667.155, 293.477 666.947, 285.027 675.473 M 242.445 705 C 242.445 722.325, 242.582 729.413, 242.748 720.750 C 242.915 712.087, 242.915 697.913, 242.748 689.250 C 242.582 680.587, 242.445 687.675, 242.445 705 M 431.400 700.500 C 431.401 708.750, 431.556 711.992, 431.744 707.704 C 431.932 703.417, 431.931 696.667, 431.742 692.704 C 431.552 688.742, 431.399 692.250, 431.400 700.500 M 283.216 692.281 C 280.347 695.186, 278 697.859, 278 698.222 C 278 698.584, 280.342 696.404, 283.205 693.377 C 286.758 689.620, 288.979 688.023, 290.206 688.344 C 291.194 688.602, 291.751 688.405, 291.442 687.907 C 290.304 686.065, 288.306 687.127, 283.216 692.281 M 574.349 699 C 574.349 703.675, 574.522 705.587, 574.732 703.250 C 574.943 700.913, 574.943 697.087, 574.732 694.750 C 574.522 692.413, 574.349 694.325, 574.349 699 M 525.360 704 C 525.360 709.225, 525.529 711.362, 525.735 708.750 C 525.941 706.138, 525.941 701.862, 525.735 699.250 C 525.529 696.638, 525.360 698.775, 525.360 704 M 537.365 704.500 C 537.368 710, 537.536 712.122, 537.738 709.216 C 537.941 706.311, 537.939 701.811, 537.734 699.216 C 537.528 696.622, 537.363 699, 537.365 704.500 M 631.378 708 C 631.378 714.325, 631.541 716.913, 631.739 713.750 C 631.937 710.587, 631.937 705.413, 631.739 702.250 C 631.541 699.087, 631.378 701.675, 631.378 708 M 278.420 722.500 C 278.419 733.500, 278.565 738.136, 278.745 732.803 C 278.924 727.470, 278.925 718.470, 278.746 712.803 C 278.568 707.136, 278.421 711.500, 278.420 722.500 M 650.966 748.750 L 645.500 754.500 651.250 749.034 C 656.592 743.956, 657.458 743, 656.716 743 C 656.560 743, 653.972 745.587, 650.966 748.750 M 746.750 755.723 C 748.538 755.945, 751.462 755.945, 753.250 755.723 C 755.038 755.502, 753.575 755.320, 750 755.320 C 746.425 755.320, 744.962 755.502, 746.750 755.723 M 254.250 763.747 C 260.712 763.921, 271.288 763.921, 277.750 763.747 C 284.212 763.573, 278.925 763.430, 266 763.430 C 253.075 763.430, 247.787 763.573, 254.250 763.747 M 349.250 763.748 C 356.813 763.917, 369.188 763.917, 376.750 763.748 C 384.313 763.578, 378.125 763.439, 363 763.439 C 347.875 763.439, 341.688 763.578, 349.250 763.748 M 598.287 767.740 C 601.469 767.939, 606.419 767.937, 609.287 767.736 C 612.154 767.535, 609.550 767.372, 603.500 767.374 C 597.450 767.376, 595.104 767.541, 598.287 767.740 M 742.250 767.739 C 745.413 767.937, 750.587 767.937, 753.750 767.739 C 756.913 767.541, 754.325 767.378, 748 767.378 C 741.675 767.378, 739.087 767.541, 742.250 767.739" stroke="none" fill="#55581e" fill-rule="evenodd"/><path d="" stroke="none" fill="#040404" fill-rule="evenodd"/></svg>